<svg xmlns="http://www.w3.org/2000/svg" width="117" height="128" viewBox="0 0 117 128">
    <g fill="#FFF" fill-rule="evenodd">
        <g stroke="#FFF">
            <path d="M90.488 30.708c-11.556 4.754-23.263 8.894-34.491 14.226-.071-.337.036-.534.36-.692 1.311-.64 2.624-1.272 3.932-1.918 8.533-4.214 17.27-7.962 26.112-11.47 1.713-.68 3.466-1.256 5.194-1.898a1.45 1.45 0 0 0 .565-.42c.173-.204.312-.453.41-.704.106-.273.257-.363.56-.258v.82c.282-.06.527-.088.753-.171.225-.084.394-.017.54.13.05.05.08.192.047.245-.29.452-.63.848-1.22.894-.209.017-.286.167-.357.344-1.416 3.506-3.076 6.891-5.042 10.121-2.512 4.13-5.45 7.915-9.026 11.177-4.445 4.054-9.515 6.971-15.371 8.442-1.677.422-3.373.738-5.098.87-.982.075-1.966.186-2.948.171-1.17-.017-2.34-.148-3.509-.241-.074-.006-.14-.11-.21-.17.079-.062.152-.171.235-.178.626-.056 1.254-.092 1.881-.13 1.465-.09 2.93-.162 4.393-.265 3.09-.217 5.984-1.141 8.794-2.416 4.846-2.199 8.878-5.476 12.497-9.32 2.607-2.768 4.732-5.899 6.756-9.104 1.262-2 2.521-4.003 3.551-6.138.241-.5.418-1.03.618-1.55.036-.092.038-.199.074-.397"/>
            <path d="M61.209 84.919c-.313-.13-.612-.245-.904-.375-2.716-1.212-5.15-2.868-7.409-4.787-3.456-2.935-6.379-6.329-8.706-10.233-1.812-3.04-2.98-6.313-3.62-9.787-.35-1.902-.614-3.815-.686-5.749-.059-1.566-.14-3.135-.107-4.7.067-3.166.4-6.306 1.086-9.404.249-1.126.437-2.266.65-3.4.036-.185-.01-.297-.235-.305-2.262-.08-4.525-.25-6.786-.232-3.947.03-7.816.642-11.568 1.914a2.86 2.86 0 0 1-.639.143c-.092.009-.256-.066-.276-.135-.028-.097.01-.277.085-.33.22-.155.457-.312.711-.384 2.064-.582 4.122-1.19 6.204-1.7 1.49-.364 3.011-.616 4.526-.87.866-.144 1.746-.2 2.621-.282.907-.086 1.814-.19 2.723-.224 1.298-.047 2.6-.037 3.9-.05.331-.003.663 0 1.06 0-.05.202-.076.32-.108.435-.52 1.935-1.108 3.855-1.541 5.81-.349 1.573-.54 3.183-.748 4.784-.28 2.145-.296 4.309-.166 6.46.113 1.873.324 3.747.634 5.597.713 4.245 2.117 8.267 4.06 12.108 1.08 2.137 2.545 3.979 4.147 5.728 2.403 2.623 4.93 5.119 7.703 7.35 1.022.823 2.056 1.636 3.297 2.12.227.09.163.277.092.498M74.388 8.176c-.157.252-.27.52-.456.717-.463.487-.925.984-1.45 1.398-.748.59-1.548 1.116-2.334 1.657-.197.135-.42.242-.642.332-1.058.43-1.027.307-1.68-.31a8.419 8.419 0 0 1-.62-.629c-.967-1.126-3.172-1.448-4.515-.58-1.18.763-2.176 1.718-3.089 2.767-2.622 3.012-4.752 6.363-6.634 9.875-.614 1.146-1.126 2.347-1.675 3.528-.082.177-.15.247-.35.156-.866-.398-.843-.125-.555-1.163.394-1.417 1.086-2.71 1.81-3.977 2.441-4.267 5.223-8.293 8.52-11.942a18.524 18.524 0 0 1 4.73-3.781c1.104-.617 2.277-.734 3.5-.563 1.655.232 3.146.92 4.608 1.684.202.105.39.252.557.408.107.1.166.25.275.423"/>
            <path d="M74.13 11.147c.41.119.79.173 1.12.334 1.39.68 2.588 1.63 3.647 2.76.057.06.105.13.154.199.262.364.25.442-.1.72-1.087.864-2.18 1.718-3.422 2.351-.971.496-1.992.822-3.088.878-.308.015-.508-.1-.63-.404-.155-.388-.316-.784-.544-1.13-.668-1.019-1.664-1.29-2.805-1.115-1.476.228-2.742.956-3.965 1.758-2.224 1.458-4.217 3.203-6.093 5.076-1.71 1.707-3.353 3.483-5.03 5.224-.087.09-.247.227-.313.2-.226-.098-.432-.25-.628-.404-.022-.017.05-.191.109-.268.72-.93 1.4-1.897 2.179-2.776 3.431-3.875 7.286-7.27 11.61-10.118 1.686-1.11 3.441-2.104 5.375-2.718.792-.252 1.622-.383 2.423-.567M49.627 26.696c-.246-.094-.447-.154-.631-.249-.076-.038-.162-.15-.162-.229.003-1.102-.015-2.206.046-3.306.053-.941.164-1.883.313-2.814.314-1.963.871-3.868 1.463-5.761.866-2.77 1.846-5.498 3.166-8.09.328-.644.712-1.262 1.096-1.876.72-1.153 1.745-1.838 3.102-2.033 1.523-.219 3.044-.3 4.563-.004.305.06.605.172.888.303.278.128.399.36.28.678-.077.206-.122.427-.217.623-.558 1.142-1.114 2.285-1.699 3.413a4.174 4.174 0 0 1-.65.884c-.351.381-.726.432-1.199.214a4.315 4.315 0 0 1-.55-.304c-1.099-.716-2.22-.654-3.342-.084-1.093.554-1.86 1.457-2.511 2.467-1.046 1.622-1.707 3.414-2.253 5.253-.655 2.208-1.09 4.464-1.37 6.746-.148 1.218-.195 2.449-.288 3.674-.01.145-.026.289-.045.495M46.951 26.15c-.523.101-.609.071-.694-.388-.31-1.68-.647-3.359-.886-5.05-.258-1.827-.23-3.674-.071-5.51.166-1.925.326-3.852.588-5.764.24-1.754.58-3.496.933-5.231.235-1.15.957-1.93 2.091-2.27 1.051-.316 2.11-.609 3.17-.896.187-.05.397-.046.593-.03.721.063 1.17.531 1.094 1.236a39.35 39.35 0 0 1-.446 3.016c-.072.384-.257.757-.448 1.104-.471.853-1.266.935-2.128.855-.427-.04-.86-.07-1.286-.037-.602.047-1.04.42-1.41.867-.683.823-1.015 1.808-1.253 2.828-.474 2.032-.571 4.102-.505 6.175.058 1.848.18 3.695.31 5.54.082 1.181.229 2.358.348 3.554"/>
            <path d="M54.353 28.404c.124-.137.231-.264.347-.383 4.452-4.543 9.803-7.423 16.016-8.698.84-.173 1.686-.339 2.538-.406.437-.035.928.076 1.333.26 1.293.585 2.295 1.533 3.074 2.718.047.07.088.144.124.22.216.448.177.567-.262.786-1.06.53-2.118 1.075-3.296 1.294a3.917 3.917 0 0 1-1.18.036c-.567-.07-.764-.28-.766-.85-.002-.7-.38-1.102-.928-1.419-1.069-.616-2.219-.72-3.408-.535-2.32.362-4.338 1.45-6.301 2.662-2.106 1.3-4.034 2.842-5.958 4.39-.609.492-.663.487-1.333-.075M45.049 26.14c-.592.24-.596.242-.894-.27-.879-1.51-1.426-3.155-1.92-4.819a47.492 47.492 0 0 1-1.586-7.568c-.221-1.756-.279-3.519-.266-5.287.007-.975.386-1.693 1.201-2.207.818-.516 1.668-.929 2.659-.942.39-.005.579.127.667.488.313 1.296.468 2.604.241 3.933a2.21 2.21 0 0 1-.19.563c-.137.29-.366.44-.702.436-.313-.003-.627.035-.94.046-.35.012-.582.2-.768.478-.423.634-.56 1.354-.603 2.093-.13 2.24.296 4.414.835 6.568.483 1.927 1.08 3.819 1.863 5.647.12.278.261.545.403.84M64.837 85.109c.437.023.874.063 1.31.067 1.226.009 2.453.026 3.678-.003 1.407-.034 2.79-.268 4.15-.632 2.349-.63 4.447-1.694 6.045-3.59.407-.484.748-1.023 1.119-1.537l-.07-.05c-.616.145-1.229.31-1.85.432a15.835 15.835 0 0 1-4.346.25c-1.752-.138-3.43-.531-5.007-1.323-.156-.079-.234-.025-.343.085-.368.374-.727.763-1.133 1.092-.773.628-1.706.875-2.67 1.015-.404.058-.81.097-1.217.125-.095.006-.195-.068-.292-.105.09-.084.166-.216.27-.243.628-.162 1.268-.279 1.892-.451 1.135-.313 2.034-1.004 2.698-2.04-.776-.618-1.654-1.135-2.175-2.065.121.056.247.102.362.168.858.484 1.688 1.03 2.576 1.448 1.545.726 3.176 1.199 4.884 1.339 2.708.22 5.332-.105 7.815-1.285.188-.09.38-.182.579-.24.107-.03.282-.032.341.033.063.068.05.236.022.35-.037.15-.11.295-.185.432-2.143 3.962-5.298 6.629-9.743 7.623-1.443.322-2.911.399-4.376.22-1.15-.142-2.29-.365-3.43-.576-.341-.063-.686-.173-.904-.539"/>
            <path d="M56.671 29.818c.16-.128.318-.26.482-.383 2.548-1.906 5.415-3.13 8.457-3.978 1.585-.442 3.194-.77 4.83-.927.841-.082 1.692-.075 2.538-.08.197 0 .432.069.585.188.56.437 1.097.906 1.634 1.373.1.086.166.217.228.337.123.238.075.425-.187.534-.917.386-1.83.799-2.827.922-.387.048-.793 0-1.183-.053-.297-.04-.479-.239-.485-.567-.007-.306-.158-.538-.4-.715-.402-.293-.858-.432-1.348-.463-1.544-.1-3.008.307-4.469.726a23.631 23.631 0 0 0-6.927 3.294c-.466.32-.51.307-.928-.208M66.782 84.868c-.157-.135-.31-.276-.47-.406-3.374-2.727-5.407-6.317-6.646-10.413a26.672 26.672 0 0 1-1.075-5.52c-.113-1.36-.208-2.725-.23-4.09-.012-.651.143-1.31.264-1.958.08-.429.342-.543.956-.474v.36c-.003 1.272-.023 2.545-.004 3.818.052 3.334.698 6.552 1.99 9.625.573 1.364 1.228 2.694 1.875 4.026.667 1.373 1.692 2.504 2.567 3.737l.865 1.22c-.03.026-.061.05-.092.075M43.402 26.681c-.192.126-.348.251-.524.333-.067.031-.21-.006-.266-.063-.293-.3-.606-.59-.846-.93-2.322-3.29-4.317-6.759-5.618-10.596-.03-.09-.06-.179-.085-.27-.12-.453-.293-.898-.08-1.378.303-.682.658-1.328 1.3-1.742.46-.297.741-.255.99.246.399.801.771 1.609.936 2.497.07.377.037.711-.329.938-.123.077-.218.201-.34.279-.618.387-.686.95-.535 1.597.273 1.17.814 2.226 1.397 3.26a39.843 39.843 0 0 0 3.856 5.641c.04.048.076.099.144.188"/>
            <path d="M57.906 30.876c.275-.165.525-.336.793-.47 1.988-.998 4.085-1.676 6.263-2.102 1.47-.287 2.95-.5 4.453-.51 1.464-.009 2.205.777 2.585 2.037.179.592.07.781-.507.957-.63.192-1.261.39-1.938.277-.448-.075-.755-.277-.909-.744-.293-.893-.78-1.217-1.718-1.287-1.758-.132-3.427.305-5.088.786-1.13.327-2.222.755-3.261 1.311-.39.208-.391.204-.673-.255M42.12 27.752c-.226.5-.237.516-.64.217-1.927-1.434-3.711-3.019-5.171-4.948-.322-.425-.415-.884-.357-1.391.043-.385.072-.775.163-1.15.109-.444.3-.497.635-.2a4.985 4.985 0 0 1 1.284 1.772.721.721 0 0 1-.053.717c-.414.666-.403.85.087 1.485.705.915 1.589 1.645 2.495 2.347.504.391 1.027.76 1.558 1.151M46.698 35.867a1.878 1.878 0 0 1-1.22-.357c-.795-.56-.81-1.53-.035-2.122.715-.547 1.883-.532 2.584.032.724.582.71 1.512-.036 2.065-.385.285-.82.416-1.293.382"/>
            <path d="M58.776 31.947c.508-.17 1.02-.381 1.55-.513 1.884-.466 3.782-.542 5.693-.17.311.062.555.192.687.483.18.399.375.795.51 1.21.106.322-.064.538-.396.499-.641-.077-1.277-.203-1.912-.321-.057-.01-.137-.112-.136-.17.004-.353.005-.701-.3-.953-.37-.304-.82-.362-1.271-.376-1.119-.034-2.201.218-3.283.46-.255.057-.512.106-.765.172-.22.058-.342-.011-.377-.321M37.396 25.518c.543.015 1.287.746 1.261 1.277-.015.309.098.513.353.64.797.397 1.595.79 2.4 1.166.175.082.295.129.22.354-.087.261-.254.136-.377.078-1.036-.48-2.078-.95-3.096-1.466-.597-.303-.992-.804-1.072-1.502-.039-.336.093-.553.311-.547"/>
        </g>
        <path d="M.2 111.392h3.126v6.218c0 2.513.637 4.275 1.911 5.285 1.274 1.01 3.159 1.516 5.655 1.516 1.286 0 2.394-.097 3.32-.292.926-.194 1.691-.53 2.296-1.01.605-.479 1.05-1.14 1.332-1.981.283-.842.425-1.911.425-3.206v-6.586h3.126v6.624c0 1.71-.238 3.174-.713 4.39-.477 1.219-1.165 2.217-2.065 2.993-.902.778-2.008 1.348-3.32 1.71-1.313.363-2.805.544-4.478.544-3.526 0-6.177-.802-7.952-2.409C1.087 123.583.2 121.276.2 118.271v-6.879zm114.636 8.036a3.21 3.21 0 0 1-1.274.97h-.006l-.01.004a3.45 3.45 0 0 1-.302.112c-.98.307-2.183.46-3.609.46h-5.866v-.021H64.201c-1.005 0-1.815-.24-2.433-.72a3.425 3.425 0 0 1-1.235-1.806c-.464 1.062-1.19 1.748-2.182 2.06-.99.31-2.206.466-3.647.466H29.613a9.437 9.437 0 0 1-2.258-.253c-.681-.169-1.261-.46-1.737-.874-.476-.415-.85-.966-1.12-1.652-.27-.685-.405-1.548-.405-2.584V98.22h3.166v16.515c0 1.087.167 1.86.502 2.313.335.453 1.08.68 2.238.68H35.017a10.98 10.98 0 0 1-.733-1.806c-.206-.662-.309-1.42-.309-2.274 0-1.01.168-2.008.502-2.992a8.067 8.067 0 0 1 1.467-2.624 7.544 7.544 0 0 1 2.374-1.865c.939-.48 2.026-.718 3.261-.718 1.415 0 2.574.259 3.474.778.902.518 1.615 1.177 2.143 1.98.528.804.895 1.69 1.1 2.662.206.972.309 1.924.309 2.857v4.002h5.519c.618 0 1.146-.026 1.583-.078.438-.05.805-.174 1.1-.37.297-.193.516-.478.657-.853.141-.376.212-.888.212-1.536v-6.727h3.165v5.29c0 .646.045 1.238.136 1.768.09.53.263.978.52 1.34.258.363.605.648 1.043.855.437.208.99.31 1.66.31h4.4a11.135 11.135 0 0 1-.734-1.805c-.206-.662-.308-1.42-.308-2.274 0-1.01.167-2.008.501-2.992a8.07 8.07 0 0 1 1.468-2.624 7.544 7.544 0 0 1 2.374-1.865c.938-.48 2.026-.718 3.26-.718 1.417 0 2.574.259 3.476.778.9.518 1.614 1.177 2.142 1.98.527.804.893 1.69 1.1 2.662.205.972.309 1.924.309 2.857v4.002H100.6c0-1.657-.22-3.056-.657-4.196-.437-1.14-1.03-2.066-1.775-2.778a6.771 6.771 0 0 0-2.606-1.555 10.195 10.195 0 0 0-3.185-.486c-.746 0-1.538.072-2.374.214a19.81 19.81 0 0 0-2.065.446v-3.108a31.97 31.97 0 0 1 2.046-.525c.849-.194 1.775-.291 2.78-.291 1.93 0 3.589.323 4.979.97 1.39.65 2.54 1.536 3.454 2.663.914 1.126 1.59 2.435 2.027 3.925.437 1.49.67 3.064.695 4.72H110.428c.068-.005.134-.012.2-.02.433-.052.796-.173 1.089-.365.292-.193.509-.474.649-.846s.21-.879.21-1.52v-6.925h3.132v5.533c0 1.899.319 4.3-.872 5.845zm-6.965-19.248c0-.57.199-1.056.598-1.457a1.967 1.967 0 0 1 1.448-.603c.566 0 1.048.201 1.447.603.399.401.599.886.599 1.457 0 .57-.2 1.056-.6 1.457-.398.402-.88.602-1.446.602s-1.05-.2-1.448-.602a1.993 1.993 0 0 1-.598-1.457zm4.129 0c0-.57.199-1.056.598-1.457a1.965 1.965 0 0 1 1.447-.603c.567 0 1.049.201 1.448.603.399.401.599.886.599 1.457 0 .57-.2 1.056-.6 1.457a1.965 1.965 0 0 1-1.447.602c-.566 0-1.048-.2-1.447-.602a1.993 1.993 0 0 1-.598-1.457zm-21.862.038c0-.57.2-1.056.599-1.458.398-.4.88-.602 1.447-.602a1.97 1.97 0 0 1 1.448.602c.398.402.598.889.598 1.458 0 .57-.2 1.057-.598 1.458a1.966 1.966 0 0 1-1.448.602c-.566 0-1.05-.2-1.447-.602a1.99 1.99 0 0 1-.6-1.458zm-19.569 12.924c0 1.58.463 2.74 1.39 3.478.926.738 2.058 1.107 3.397 1.107h3.705v-3.886c0-.621-.058-1.25-.174-1.884a4.953 4.953 0 0 0-.636-1.71 3.675 3.675 0 0 0-1.275-1.243c-.54-.325-1.222-.486-2.045-.486-1.364 0-2.432.452-3.204 1.36-.773.907-1.158 1.994-1.158 3.264zm1.62-12.962c0-.57.2-1.056.598-1.457a1.965 1.965 0 0 1 1.447-.603c.567 0 1.05.201 1.448.603.4.401.598.886.598 1.457 0 .57-.199 1.056-.598 1.457a1.965 1.965 0 0 1-1.448.602c-.565 0-1.048-.2-1.447-.602a1.994 1.994 0 0 1-.599-1.457zm-22.72 25.466c0-.57.203-1.058.6-1.457a1.97 1.97 0 0 1 1.447-.602c.566 0 1.05.202 1.447.602.397.4.598.887.598 1.457 0 .57-.2 1.058-.598 1.458-.829.834-2.092.807-2.895 0a2.001 2.001 0 0 1-.599-1.458zm4.13 0c0-.57.202-1.058.598-1.457a1.972 1.972 0 0 1 1.448-.602c.566 0 1.051.203 1.447.602.397.4.598.887.598 1.457 0 .57-.201 1.059-.598 1.458-.829.834-2.092.807-2.895 0a2 2 0 0 1-.598-1.458zm-16.613-12.504c0 1.58.463 2.74 1.39 3.478.926.738 2.059 1.107 3.396 1.107h3.706v-3.886c0-.621-.058-1.25-.174-1.884a4.936 4.936 0 0 0-.637-1.71 3.668 3.668 0 0 0-1.274-1.243c-.54-.325-1.222-.486-2.045-.486-1.364 0-2.432.452-3.204 1.36-.771.907-1.158 1.994-1.158 3.264zm1.62-12.962c0-.57.2-1.056.598-1.457a1.967 1.967 0 0 1 1.448-.603c.566 0 1.048.201 1.447.603.399.401.598.886.598 1.457 0 .57-.199 1.056-.598 1.457a1.964 1.964 0 0 1-1.447.602c-.566 0-1.049-.2-1.448-.602a1.994 1.994 0 0 1-.599-1.457zM8.883 112.404c0-.57.2-1.056.6-1.457a1.965 1.965 0 0 1 1.447-.602c.566 0 1.048.2 1.447.602.4.401.598.888.598 1.457a1.99 1.99 0 0 1-.598 1.457 1.965 1.965 0 0 1-1.447.603 1.966 1.966 0 0 1-1.448-.603 1.99 1.99 0 0 1-.599-1.457z"/>
    </g>
</svg>
